<svg width="27" height="26" fill="none" xmlns="http://www.w3.org/2000/svg"><path d="M13.851 10.957c1.016 0 1.806-.836 1.787-1.746.019-.91-.752-1.764-1.768-1.764-.978 0-1.787.78-1.787 1.746 0 .965.79 1.764 1.768 1.764z" fill="#CDCDCD"/><path d="M13.701 0C6.441 0 .535 5.832.535 13c0 7.187 5.906 13 13.166 13 7.279 0 13.166-5.831 13.166-13C26.885 5.832 20.98 0 13.7 0zm.188 4.922c2.37 0 4.326 1.931 4.307 4.29 0 2.377-1.975 4.29-4.382 4.252-2.37-.037-4.27-1.95-4.27-4.271 0-2.359 1.938-4.271 4.345-4.271zm4.834 10.028c0 .037-.019.056-.019.093a1.213 1.213 0 01-.564.873 7.49 7.49 0 01-.659.371 8.545 8.545 0 01-1.786.65c-.075.019-.075.019-.02.075l1.035 1.02c.433.428.884.874 1.317 1.3.62.614.451 1.635-.339 2.007-.131.074-.282.092-.432.13h-.245c-.019 0-.037 0-.037-.019-.301-.037-.546-.186-.771-.39l-2.276-2.247c-.057-.056-.057-.056-.113 0l-2.295 2.266c-.131.13-.263.222-.432.297-.113.055-.245.074-.358.093h-.244c-.038 0-.057-.019-.094-.019-.508-.093-.847-.371-.997-.854-.15-.483-.038-.91.32-1.263l.94-.929 1.392-1.374c.056-.056.056-.056-.019-.074-.019 0-.056-.019-.075-.019a8.182 8.182 0 01-2.351-.984c-.433-.279-.64-.687-.583-1.189.094-.928 1.147-1.43 1.937-.928.15.093.282.167.451.241a5.412 5.412 0 002.746.557c.47-.018.94-.111 1.411-.26.451-.148.846-.353 1.26-.575.677-.39 1.561-.075 1.825.65.037.111.056.204.075.315v.186z" fill="#CDCDCD"/></svg>